<?xml version="1.0" standalone="no"?>
<!DOCTYPE svg PUBLIC "-//W3C//DTD SVG 20010904//EN"
 "http://www.w3.org/TR/2001/REC-SVG-20010904/DTD/svg10.dtd">
<svg version="1.0" xmlns="http://www.w3.org/2000/svg"
 width="1400.000000pt" height="1400.000000pt" viewBox="0 0 1400.000000 1400.000000"
 preserveAspectRatio="xMidYMid meet">
<metadata>
Created by potrace 1.11, written by Peter Selinger 2001-2013
</metadata>
<g transform="translate(0.000000,1400.000000) scale(0.100000,-0.100000)"
fill="#000000" stroke="none">
<path d="M300 10922 c0 -8 28 -48 55 -78 5 -7 24 -29 40 -49 17 -20 40 -49 53
-64 31 -35 72 -83 192 -226 23 -27 52 -61 64 -75 12 -14 55 -65 96 -115 41
-49 92 -108 112 -130 21 -22 38 -43 38 -47 0 -4 15 -22 33 -41 17 -18 68 -76
111 -130 44 -53 83 -97 88 -97 4 0 8 -4 8 -10 0 -5 8 -18 18 -28 9 -10 33 -38
54 -63 20 -24 46 -55 58 -69 12 -14 39 -45 59 -70 20 -25 51 -62 70 -82 19
-21 41 -48 49 -60 9 -13 18 -25 22 -28 3 -3 30 -34 60 -70 30 -36 67 -77 83
-93 15 -15 27 -30 27 -33 0 -3 28 -38 63 -78 77 -89 146 -171 172 -204 11 -14
33 -39 48 -56 16 -17 41 -47 55 -66 15 -18 38 -46 52 -61 14 -15 41 -46 60
-70 19 -24 42 -50 50 -59 9 -8 42 -48 74 -88 32 -39 63 -72 69 -72 6 0 8 -3 4
-6 -3 -3 4 -16 16 -29 12 -12 29 -31 37 -41 51 -64 111 -134 147 -173 24 -26
43 -49 43 -53 0 -4 7 -13 15 -21 7 -8 46 -52 84 -98 39 -46 84 -98 101 -116
16 -18 30 -35 30 -39 0 -4 10 -16 23 -28 12 -12 45 -49 72 -84 28 -34 53 -62
58 -62 4 0 7 -4 7 -10 0 -5 10 -20 23 -33 12 -13 42 -48 67 -77 25 -29 50 -58
57 -65 7 -7 9 -15 6 -19 -4 -3 -2 -6 3 -6 6 0 75 -78 155 -172 79 -95 154
-183 167 -196 12 -12 22 -25 22 -28 0 -2 13 -19 29 -37 16 -17 39 -43 50 -57
11 -14 29 -34 39 -45 10 -11 52 -60 93 -110 41 -49 84 -101 96 -115 27 -31 56
-65 91 -108 15 -18 38 -46 52 -61 14 -16 41 -48 62 -72 20 -24 44 -54 55 -65
10 -12 34 -41 53 -64 19 -24 40 -48 45 -54 6 -6 35 -41 64 -76 30 -36 61 -72
68 -80 8 -8 21 -25 31 -36 9 -12 37 -45 62 -74 54 -63 63 -74 115 -136 22 -26
48 -56 58 -66 9 -10 17 -20 17 -23 0 -2 12 -17 28 -34 15 -16 37 -42 49 -57
12 -16 34 -43 50 -60 15 -17 46 -53 68 -79 22 -27 46 -54 53 -61 6 -7 12 -17
12 -23 0 -6 4 -11 8 -11 5 0 32 -28 60 -62 28 -35 61 -75 74 -90 43 -50 63
-73 96 -113 18 -22 51 -60 72 -85 21 -25 57 -67 80 -95 23 -27 52 -61 64 -75
28 -34 226 -268 251 -299 11 -13 32 -37 48 -53 15 -16 27 -31 27 -34 0 -3 9
-15 21 -27 11 -12 35 -39 52 -60 18 -22 42 -51 55 -65 13 -15 37 -44 55 -65
51 -62 66 -79 107 -127 55 -64 162 -191 185 -219 11 -13 31 -37 45 -53 14 -15
36 -42 50 -60 14 -17 32 -38 40 -47 8 -9 35 -41 60 -71 25 -30 55 -66 68 -80
28 -31 37 -41 98 -115 27 -33 54 -65 59 -71 6 -6 28 -33 50 -59 22 -27 50 -60
62 -74 13 -14 26 -30 31 -36 39 -47 129 -153 141 -167 9 -9 27 -31 41 -49 14
-18 32 -40 40 -48 9 -9 36 -41 60 -71 25 -30 53 -62 62 -72 10 -10 18 -23 18
-29 0 -5 4 -8 9 -5 5 3 11 -1 15 -9 5 -13 330 -15 2828 -13 l2822 3 -2 3970
c-1 2184 -2 3977 -3 3986 -2 12 -11 15 -38 11 -20 -2 -47 -4 -61 -3 -29 1 -71
0 -117 -2 -18 -1 -33 1 -33 6 0 4 -5 5 -11 2 -18 -12 -68 -12 -73 -1 -2 6 -5
5 -5 -2 -1 -7 -6 -10 -12 -7 -13 9 -89 12 -89 4 0 -3 -15 -4 -32 -1 -18 2 -44
2 -58 2 -14 -1 -36 -2 -50 -1 -29 1 -72 0 -117 -2 -18 -1 -33 1 -33 6 0 4 -5
5 -11 2 -18 -12 -68 -12 -73 -1 -2 6 -5 5 -5 -2 -1 -7 -6 -10 -12 -7 -13 9
-89 12 -89 4 0 -3 -15 -4 -32 -1 -18 2 -44 2 -58 2 -31 -2 -52 -2 -108 2 -23
2 -42 0 -42 -3 0 -6 -59 -3 -66 4 -3 3 -18 2 -33 -3 -15 -4 -35 -3 -44 2 -10
5 -17 5 -17 0 0 -8 -58 -8 -66 1 -3 3 -18 2 -33 -3 -15 -4 -35 -3 -44 2 -10 5
-17 5 -17 0 0 -8 -58 -8 -66 1 -3 3 -18 2 -33 -3 -15 -4 -35 -3 -44 2 -10 5
-17 5 -17 0 0 -4 -15 -7 -32 -4 -18 2 -44 2 -58 2 -31 -2 -52 -2 -108 2 -23 2
-42 0 -42 -3 0 -3 -15 -4 -32 -1 -18 2 -44 2 -58 2 -14 -1 -36 -2 -50 -1 -29
1 -72 0 -117 -2 -18 -1 -33 1 -33 6 0 4 -5 5 -11 2 -18 -12 -68 -12 -73 -1 -2
6 -5 5 -5 -2 -1 -7 -6 -10 -12 -7 -13 9 -89 12 -89 4 0 -3 -15 -4 -32 -1 -18
2 -44 2 -58 2 -14 -1 -36 -2 -50 -1 -29 1 -72 0 -117 -2 -18 -1 -33 1 -33 6 0
4 -5 5 -11 2 -18 -12 -68 -12 -73 -1 -2 6 -5 5 -5 -2 -1 -7 -6 -10 -12 -7 -13
9 -89 12 -89 4 0 -3 -15 -4 -32 -1 -18 2 -44 2 -58 2 -31 -2 -52 -2 -108 2
-23 2 -42 0 -42 -3 0 -6 -59 -3 -66 4 -3 3 -18 2 -33 -3 -15 -4 -35 -3 -44 2
-10 5 -17 5 -17 0 0 -8 -58 -8 -66 1 -3 3 -18 2 -33 -3 -15 -4 -35 -3 -44 2
-10 5 -17 5 -17 0 0 -8 -58 -8 -66 1 -3 3 -18 2 -33 -3 -15 -4 -35 -3 -44 2
-10 5 -17 5 -17 0 0 -4 -15 -7 -32 -4 -18 2 -44 2 -58 2 -31 -2 -52 -2 -108 2
-23 2 -42 0 -42 -3 0 -3 -15 -4 -32 -1 -18 2 -44 2 -58 2 -14 -1 -36 -2 -50
-1 -29 1 -72 0 -118 -2 -17 -1 -32 1 -32 6 0 4 -5 5 -11 2 -18 -12 -68 -12
-73 -1 -2 6 -5 5 -5 -2 -1 -7 -6 -10 -12 -7 -13 9 -89 12 -89 4 0 -3 -15 -4
-32 -1 -18 2 -44 2 -58 2 -14 -1 -36 -2 -50 -1 -29 1 -72 0 -117 -2 -18 -1
-33 1 -33 6 0 4 -5 5 -11 2 -18 -12 -68 -12 -73 -1 -2 6 -5 5 -5 -2 -1 -7 -6
-10 -12 -7 -13 9 -89 12 -89 4 0 -3 -15 -4 -32 -1 -18 2 -44 2 -58 2 -14 -1
-36 -2 -50 -1 -29 1 -72 0 -117 -2 -18 -1 -33 1 -33 6 0 4 -5 5 -11 2 -18 -12
-68 -12 -73 -1 -2 6 -5 5 -5 -2 -1 -7 -6 -10 -12 -7 -13 9 -89 12 -89 4 0 -3
-15 -4 -32 -1 -18 2 -44 2 -58 2 -14 -1 -36 -2 -50 -1 -29 1 -72 0 -118 -2
-17 -1 -32 1 -32 6 0 4 -5 5 -11 2 -16 -11 -69 -12 -69 -2 0 4 -5 5 -12 1 -16
-10 -68 -11 -68 -1 0 5 -5 5 -11 2 -18 -12 -68 -12 -73 -1 -2 6 -5 5 -5 -2 -1
-7 -6 -10 -12 -7 -13 9 -89 12 -89 4 0 -3 -15 -4 -32 -1 -18 2 -44 2 -58 2
-14 -1 -36 -2 -50 -1 -29 1 -72 0 -117 -2 -18 -1 -33 1 -33 6 0 4 -5 5 -11 2
-16 -11 -69 -12 -69 -2 0 4 -5 5 -12 1 -16 -10 -68 -11 -68 -1 0 5 -5 5 -11 2
-18 -12 -68 -12 -73 -1 -2 6 -5 5 -5 -2 -1 -7 -6 -10 -12 -7 -13 9 -89 12 -89
4 0 -3 -15 -4 -32 -1 -18 2 -44 2 -58 2 -14 -1 -36 -2 -50 -1 -29 1 -72 0
-117 -2 -18 -1 -33 1 -33 6 0 4 -5 5 -11 2 -16 -11 -69 -12 -69 -2 0 4 -5 5
-12 1 -16 -10 -68 -11 -68 -1 0 5 -5 5 -11 2 -18 -12 -68 -12 -73 -1 -2 6 -5
5 -5 -2 -1 -7 -6 -10 -12 -7 -13 9 -89 12 -89 4 0 -3 -15 -4 -33 -1 -17 2 -43
2 -57 2 -14 -1 -36 -2 -50 -1 -29 1 -72 0 -117 -2 -18 -1 -33 1 -33 6 0 4 -5
5 -11 2 -14 -9 -69 -13 -69 -5 0 4 -7 7 -15 7 -8 0 -15 -3 -15 -7 0 -7 -59 -5
-66 3 -3 3 -18 2 -33 -3 -15 -4 -35 -3 -44 2 -10 5 -17 5 -17 0 0 -8 -58 -8
-66 1 -3 3 -18 2 -33 -3 -15 -4 -35 -3 -44 2 -10 5 -17 5 -17 0 0 -8 -58 -8
-66 1 -3 3 -18 2 -33 -3 -15 -4 -35 -3 -44 2 -10 5 -17 5 -17 0 0 -4 -15 -7
-32 -4 -18 2 -44 2 -58 2 -31 -2 -52 -2 -108 2 -23 2 -42 0 -42 -3 0 -3 -15
-4 -32 -1 -18 2 -44 2 -58 2 -14 -1 -36 -2 -50 -1 -29 1 -72 0 -117 -2 -18 -1
-33 1 -33 6 0 4 -5 5 -11 2 -18 -12 -68 -12 -73 -1 -2 6 -5 5 -5 -2 -1 -7 -6
-10 -12 -7 -13 9 -89 12 -89 4 0 -3 -15 -4 -32 -1 -18 2 -44 2 -58 2 -14 -1
-36 -2 -50 -1 -29 1 -72 0 -117 -2 -18 -1 -33 1 -33 6 0 4 -5 5 -11 2 -18 -12
-68 -12 -73 -1 -2 6 -5 5 -5 -2 -1 -7 -6 -10 -12 -7 -13 9 -89 12 -89 4 0 -3
-15 -4 -33 -1 -17 2 -43 2 -57 2 -31 -2 -52 -2 -108 2 -23 2 -42 0 -42 -3 0
-6 -59 -3 -66 4 -3 3 -18 2 -33 -3 -15 -4 -35 -3 -44 2 -10 5 -17 5 -17 0 0
-8 -58 -8 -66 1 -3 3 -18 2 -33 -3 -15 -4 -35 -3 -44 2 -10 5 -17 5 -17 0 0
-8 -58 -8 -66 1 -3 3 -18 2 -33 -3 -15 -4 -35 -3 -44 2 -10 5 -17 5 -17 0 0
-8 -58 -8 -66 1 -3 3 -18 2 -33 -3 -15 -4 -35 -3 -44 2 -10 5 -17 5 -17 0 0
-8 -58 -8 -66 1 -3 3 -18 2 -33 -3 -15 -4 -35 -3 -44 2 -10 5 -17 5 -17 0 0
-8 -58 -8 -66 1 -3 3 -18 2 -33 -3 -15 -4 -35 -3 -44 2 -10 5 -17 5 -17 0 0
-8 -58 -8 -66 1 -3 3 -18 2 -33 -3 -15 -4 -35 -3 -44 2 -10 5 -17 5 -17 0 0
-4 -15 -7 -32 -4 -18 2 -44 2 -58 2 -31 -2 -52 -2 -108 2 -23 2 -42 0 -42 -3
0 -3 -15 -4 -32 -1 -18 2 -44 2 -58 2 -14 -1 -36 -2 -50 -1 -29 1 -72 0 -117
-2 -18 -1 -33 1 -33 6 0 4 -5 5 -11 2 -18 -12 -68 -12 -73 -1 -2 6 -5 5 -5 -2
-1 -7 -6 -10 -12 -7 -13 9 -89 12 -89 4 0 -3 -15 -4 -32 -1 -18 2 -44 2 -58 2
-14 -1 -36 -2 -50 -1 -29 1 -72 0 -117 -2 -18 -1 -33 1 -33 6 0 4 -5 5 -11 2
-18 -12 -68 -12 -73 -1 -2 6 -5 5 -5 -2 -1 -7 -6 -10 -12 -7 -13 9 -89 12 -89
4 0 -3 -15 -4 -32 -1 -18 2 -44 2 -58 2 -31 -2 -52 -2 -108 2 -23 2 -42 0 -42
-3 0 -6 -59 -3 -66 4 -3 3 -18 2 -33 -3 -15 -4 -35 -3 -44 2 -10 5 -17 5 -17
0 0 -8 -58 -8 -66 1 -3 3 -18 2 -33 -3 -15 -4 -35 -3 -44 2 -10 5 -17 5 -17 0z
m11571 -815 c1 -29 1 -6327 0 -6349 -1 -15 -14 -17 -104 -16 -57 1 -109 -2
-115 -6 -7 -4 -12 -4 -12 1 0 10 -213 8 -229 -1 -6 -4 -11 -4 -11 1 0 10 -213
8 -229 -1 -6 -4 -11 -4 -11 1 0 10 -213 8 -229 -1 -6 -4 -11 -4 -11 1 0 10
-213 8 -229 -1 -6 -4 -11 -4 -11 1 0 10 -213 8 -229 -1 -6 -4 -11 -4 -11 1 0
10 -374 8 -389 -1 -6 -4 -11 -4 -11 1 0 10 -213 8 -229 -1 -6 -4 -11 -4 -11 1
0 10 -213 8 -229 -1 -6 -4 -11 -4 -11 1 0 10 -213 8 -229 -1 -6 -4 -11 -4 -11
1 0 10 -213 8 -229 -1 -6 -4 -11 -4 -11 1 0 10 -213 8 -229 -1 -6 -4 -11 -4
-11 1 0 10 -213 8 -229 -1 -6 -4 -11 -4 -11 1 0 10 -213 8 -229 -1 -6 -4 -11
-4 -11 1 0 10 -213 8 -229 -1 -6 -4 -11 -4 -11 1 0 10 -213 8 -229 -1 -6 -4
-11 -4 -11 1 0 10 -213 8 -229 -1 -6 -4 -11 -4 -11 1 0 9 -213 9 -228 -1 -10
-6 -78 64 -147 149 -22 28 -44 55 -50 61 -24 27 -65 75 -135 159 -41 50 -85
100 -98 112 -12 13 -20 23 -17 23 3 0 -4 10 -17 23 -13 13 -39 43 -58 67 -19
24 -40 48 -45 54 -6 6 -69 81 -140 166 -71 85 -142 167 -157 183 -15 15 -24
27 -20 27 4 0 3 4 -3 8 -11 8 -61 64 -120 136 -22 27 -47 56 -55 66 -8 10 -31
37 -52 61 -20 24 -46 55 -58 69 -12 14 -40 47 -63 74 -23 27 -48 55 -54 62 -7
7 -13 15 -13 18 0 3 -10 16 -22 29 -21 21 -63 70 -118 137 -40 48 -55 66 -110
130 -30 36 -57 67 -60 70 -3 3 -39 46 -80 95 -41 50 -79 95 -85 101 -5 6 -19
22 -30 35 -68 81 -181 215 -185 219 -3 3 -39 46 -80 95 -41 50 -79 95 -85 101
-5 6 -26 30 -45 54 -19 23 -42 50 -50 60 -8 9 -35 41 -60 70 -25 30 -55 64
-67 77 -13 13 -23 27 -23 30 0 3 -8 13 -18 22 -10 9 -29 30 -42 47 -14 17 -59
71 -100 120 -70 84 -95 114 -130 153 -8 9 -73 86 -144 171 -72 85 -146 173
-165 195 -20 23 -52 61 -73 85 -20 25 -44 55 -55 67 -10 12 -27 32 -37 45 -11
12 -47 55 -80 94 -34 39 -70 82 -80 95 -20 25 -101 121 -179 211 -13 14 -38
45 -57 68 -19 23 -43 51 -53 63 -10 12 -37 44 -60 72 -23 27 -52 60 -64 73
-13 12 -23 25 -23 28 0 4 -45 57 -82 96 -10 10 -18 20 -18 23 0 2 -10 15 -22
28 -13 13 -41 45 -63 72 -22 27 -47 56 -55 65 -8 9 -41 48 -74 88 -32 40 -63
72 -69 72 -6 0 -8 3 -4 6 3 3 -4 16 -16 29 -12 12 -38 42 -56 65 -19 23 -40
48 -45 54 -13 14 -118 137 -129 151 -4 6 -19 24 -33 40 -14 17 -39 47 -57 69
-18 21 -36 43 -42 50 -52 60 -87 100 -125 146 -25 30 -74 88 -110 130 -36 42
-83 98 -105 125 -22 27 -47 56 -55 65 -8 8 -35 40 -60 70 -25 30 -47 57 -50
60 -3 3 -52 61 -110 130 -57 69 -107 127 -110 130 -3 3 -27 32 -54 65 -27 33
-55 65 -61 70 -6 6 -20 22 -29 38 l-18 27 4936 0 4936 0 1 -23z"/>
<path d="M6168 9342 c-13 -3 -11 -15 13 -85 16 -45 32 -89 36 -97 3 -8 7 -19
9 -25 6 -21 46 -131 54 -150 14 -31 56 -150 75 -215 2 -7 16 -42 25 -65 4 -11
18 -49 30 -85 12 -36 28 -78 35 -95 7 -16 16 -41 20 -55 7 -26 21 -63 36 -92
5 -10 9 -26 9 -36 0 -10 3 -22 8 -26 4 -4 7 -11 7 -14 0 -4 5 -20 12 -37 26
-70 56 -151 123 -340 40 -110 88 -245 108 -300 20 -55 37 -104 38 -110 1 -5
19 -55 39 -110 50 -135 116 -318 119 -330 3 -10 7 -21 22 -60 4 -11 6 -23 6
-27 -1 -5 3 -8 10 -8 6 0 9 -3 6 -6 -4 -3 5 -36 18 -72 14 -37 27 -74 29 -82
2 -8 15 -43 29 -78 13 -34 26 -66 27 -70 3 -11 6 -22 39 -112 17 -47 33 -92
35 -100 5 -18 43 -127 55 -155 8 -21 31 -84 120 -335 28 -80 57 -158 63 -175
7 -16 12 -32 13 -35 1 -7 14 -40 24 -65 5 -11 16 -40 24 -65 8 -25 33 -97 56
-160 23 -63 45 -126 50 -140 5 -14 27 -77 50 -140 23 -63 57 -160 76 -215 19
-55 39 -109 44 -120 5 -11 16 -40 24 -65 8 -25 29 -83 46 -130 17 -47 33 -91
34 -98 6 -31 26 -33 297 -30 l273 3 16 50 c9 28 22 63 28 78 7 16 12 31 12 35
0 4 18 54 40 112 22 58 42 115 44 126 2 12 11 35 20 52 8 16 12 32 9 36 -4 3
-1 6 5 6 7 0 11 3 10 8 -3 9 19 76 38 119 8 17 14 36 14 42 0 6 4 19 9 29 11
20 62 157 65 175 2 6 6 19 9 27 4 8 18 49 32 90 14 41 30 84 35 95 8 19 56
152 87 240 7 22 17 49 22 60 5 11 50 137 101 280 50 143 95 269 100 280 13 30
84 228 86 240 1 6 8 24 15 40 6 17 13 35 15 40 3 13 153 426 161 445 4 8 8 20
8 25 1 6 5 17 8 25 18 43 30 76 32 85 0 6 4 17 8 25 4 8 25 67 48 130 22 63
56 156 74 205 18 50 36 99 40 110 7 20 27 74 62 170 10 28 17 53 15 58 -1 4 2
7 6 7 5 0 9 6 9 13 0 11 82 244 103 292 18 40 62 170 63 183 0 6 4 12 9 12 5
0 7 4 4 8 -3 5 1 21 9 35 8 15 14 29 13 30 -2 3 23 78 37 112 22 55 53 140 65
180 7 22 18 54 25 70 8 17 23 59 36 95 12 36 26 76 32 90 6 14 11 27 12 30 1
3 6 20 10 38 4 17 11 32 15 32 4 0 7 10 6 22 l-1 22 -283 0 c-155 1 -290 -2
-299 -5 -13 -4 -94 -207 -106 -264 -2 -5 -6 -15 -9 -21 -4 -6 -9 -22 -12 -37
-2 -15 -8 -32 -13 -39 -4 -7 -8 -16 -9 -20 -1 -5 -3 -10 -4 -13 -1 -3 -3 -8
-4 -12 -1 -5 -6 -21 -13 -38 -19 -52 -26 -70 -29 -80 -1 -5 -21 -62 -44 -125
-23 -63 -48 -135 -56 -160 -9 -25 -22 -60 -30 -78 -9 -18 -16 -42 -17 -52 -1
-11 -6 -20 -11 -20 -5 0 -7 -3 -3 -6 5 -6 -10 -56 -34 -109 -5 -11 -36 -99
-69 -195 -34 -96 -65 -184 -70 -195 -11 -23 -60 -163 -65 -185 -3 -16 -51
-147 -86 -235 -10 -28 -19 -55 -19 -62 0 -6 -7 -24 -15 -39 -8 -16 -15 -36
-15 -45 0 -9 -3 -19 -7 -23 -5 -4 -9 -12 -9 -17 -1 -5 -3 -11 -4 -14 -1 -3 -3
-8 -5 -12 -1 -5 -5 -15 -8 -23 -3 -8 -15 -42 -26 -75 -23 -68 -78 -222 -88
-245 -3 -8 -7 -19 -9 -25 -4 -15 -93 -268 -101 -285 -3 -8 -7 -18 -8 -22 -2
-5 -3 -9 -5 -10 -1 -2 -3 -12 -5 -23 -2 -10 -8 -28 -13 -40 -13 -27 -43 -113
-44 -122 0 -5 -4 -16 -10 -26 -5 -10 -11 -26 -13 -35 -3 -9 -21 -62 -41 -117
-35 -97 -57 -165 -56 -175 0 -3 -4 -10 -8 -15 -5 -6 -11 -22 -13 -35 -3 -14
-10 -36 -15 -50 -6 -14 -20 -59 -32 -100 -12 -41 -26 -86 -31 -100 -5 -14 -11
-34 -13 -45 -2 -11 -18 -70 -35 -131 -16 -61 -32 -122 -35 -135 -16 -82 -47
-194 -56 -203 -7 -6 -10 -7 -9 -1 2 6 -1 29 -5 52 -4 24 -7 44 -5 45 1 2 -3
13 -10 26 -7 12 -14 38 -15 56 -2 19 -7 39 -11 46 -4 6 -8 21 -10 33 -4 23
-16 70 -34 125 -5 18 -10 35 -10 37 -1 3 -1 6 -2 8 0 1 -2 9 -4 18 -10 53
-159 508 -236 724 -59 164 -80 221 -189 530 -44 127 -90 253 -101 281 -11 29
-22 58 -23 65 -2 8 -6 21 -9 29 -3 8 -17 49 -32 90 -14 41 -28 82 -32 90 -3 8
-7 20 -9 25 -3 11 -77 219 -100 280 -8 22 -16 45 -17 50 -3 12 -36 101 -47
130 -5 11 -20 54 -34 95 -25 74 -74 213 -142 400 -19 52 -36 102 -38 110 -2 8
-9 26 -14 40 -5 14 -10 28 -11 32 -2 11 -31 87 -47 125 -8 17 -14 36 -14 43 0
7 -6 26 -14 43 -8 18 -22 57 -31 87 -10 30 -20 60 -24 65 -3 6 -6 12 -6 15 -1
6 -54 158 -65 185 -11 25 -30 87 -31 100 -1 6 -9 21 -19 34 l-17 25 -275 0
c-151 1 -281 0 -290 -2z"/>
</g>
</svg>
